HIERARCHY
ROOT SpineBase
{
  OFFSET 0.000000 0.000000 0.000000
  CHANNELS 6 Xposition Yposition Zposition Zrotation Xrotation Yrotation
  JOINT SpineMid
  {
    OFFSET -0.000000 29.205358 0.000000
    CHANNELS 3 Zrotation Xrotation Yrotation
    JOINT SpineShoulder
    {
      OFFSET 0.151997 21.695974 -0.710082
      CHANNELS 3 Zrotation Xrotation Yrotation
      JOINT Neck
      {
        OFFSET 0.083899 7.172645 -0.565397
        CHANNELS 3 Zrotation Xrotation Yrotation
        JOINT Head
        {
          OFFSET -3.883286 13.412168 -1.675843
          CHANNELS 3 Zrotation Xrotation Yrotation
          End Site
          {
            OFFSET 0 0 0
          }
        }
      }
      JOINT ShoulderLeft
      {
        OFFSET -15.719076 -4.807253 5.081993
        CHANNELS 3 Zrotation Xrotation Yrotation
        JOINT ElbowLeft
        {
          OFFSET -1.452024 -26.333002 2.103464
          CHANNELS 3 Zrotation Xrotation Yrotation
          JOINT WristLeft
          {
            OFFSET 0.193273 -21.066493 -6.516473
            CHANNELS 3 Zrotation Xrotation Yrotation
            JOINT HandLeft
            {
              OFFSET 0.363711 -3.842047 -1.690426
              CHANNELS 3 Zrotation Xrotation Yrotation
              JOINT HandTipLeft
              {
                OFFSET -1.360659 -4.347155 -1.324517
                CHANNELS 3 Zrotation Xrotation Yrotation
                End Site
                {
                  OFFSET 0 0 0
                }
              }
              JOINT ThumbLeft
              {
                OFFSET 3.766479 0.338667 -2.965049
                CHANNELS 3 Zrotation Xrotation Yrotation
                End Site
                {
                  OFFSET 0 0 0
                }
              }
            }
          }
        }
      }
      JOINT ShoulderRight
      {
        OFFSET 14.469482 -2.385762 -7.667690
        CHANNELS 3 Zrotation Xrotation Yrotation
        JOINT ElbowRight
        {
          OFFSET 6.370759 -26.243146 0.626313
          CHANNELS 3 Zrotation Xrotation Yrotation
          JOINT WristRight
          {
            OFFSET -0.997226 -21.365478 -5.062399
            CHANNELS 3 Zrotation Xrotation Yrotation
            JOINT HandRight
            {
              OFFSET -1.845211 -5.379721 0.641113
              CHANNELS 3 Zrotation Xrotation Yrotation
              JOINT HandTipRight
              {
                OFFSET -0.168558 -4.707383 0.070365
                CHANNELS 3 Zrotation Xrotation Yrotation
                End Site
                {
                  OFFSET 0 0 0
                }
              }
              JOINT ThumbRight
              {
                OFFSET 3.252253 0.273987 -0.559326
                CHANNELS 3 Zrotation Xrotation Yrotation
                End Site
                {
                  OFFSET 0 0 0
                }
              }
            }
          }
        }
      }
    }
  }
  JOINT HipLeft
  {
    OFFSET -6.585761 0.278142 -0.932076
    CHANNELS 3 Zrotation Xrotation Yrotation
    JOINT KneeLeft
    {
      OFFSET 3.624174 -28.175277 5.080812
      CHANNELS 3 Zrotation Xrotation Yrotation
      JOINT AnkleLeft
      {
        OFFSET 3.046044 -31.737816 5.485077
        CHANNELS 3 Zrotation Xrotation Yrotation
        JOINT FootLeft
        {
          OFFSET 4.784623 -6.679759 -5.794560
          CHANNELS 3 Zrotation Xrotation Yrotation
          End Site
          {
            OFFSET 0 0 0
          }
        }
      }
    }
  }
  JOINT HipRight
  {
    OFFSET 7.105739 1.450684 -5.714513
    CHANNELS 3 Zrotation Xrotation Yrotation
    JOINT KneeRight
    {
      OFFSET 5.980906 -27.019613 3.248136
      CHANNELS 3 Zrotation Xrotation Yrotation
      JOINT AnkleRight
      {
        OFFSET 3.830433 -33.504166 6.092072
        CHANNELS 3 Zrotation Xrotation Yrotation
        JOINT FootRight
        {
          OFFSET -5.774719 -6.189210 -2.691434
          CHANNELS 3 Zrotation Xrotation Yrotation
          End Site
          {
            OFFSET 0 0 0
          }
        }
      }
    }
  }
}
MOTION
Frames: 15
Frame Time: 0.033333
-21.273076 70.055036 357.854873 0.719968 0.933235 22.209210 0.042697 0.197988 -22.202213 0.130308 0.112193 0.035734 -6.110605 -2.300650 -1.205501 0.000000 0.000000 0.000000 -2.225882 12.214301 -0.788698 -14.560376 40.815473 9.719400 -44.633958 29.008883 21.428168 61.422203 -23.331913 -0.216198 0.000000 0.000000 0.000000 0.000000 0.000000 0.000000 -54.081213 32.232034 25.917095 -107.828662 8.743453 -16.779208 -21.461376 -8.668645 -92.366834 -14.775195 10.886886 2.418884 0.000000 0.000000 0.000000 0.000000 0.000000 0.000000 -3.560454 3.135100 -22.524740 3.778097 -2.464969 0.442149 -18.145109 7.800688 23.701416 0.000000 0.000000 0.000000 -5.954797 0.653417 -22.989066 5.459915 2.192594 0.968531 7.237545 -1.425740 -3.628359 0.000000 0.000000 0.000000
-21.231270 70.010992 357.860077 0.667713 0.902837 22.337320 0.028304 0.161251 -22.330568 0.087119 0.056673 0.030862 -6.353094 -2.615543 -1.389875 0.000000 0.000000 0.000000 -2.152211 13.333560 -0.821175 -15.688035 39.679655 10.115728 -44.467876 28.855999 21.788822 63.690516 -22.816052 0.999467 0.000000 0.000000 0.000000 0.000000 0.000000 0.000000 -50.148556 31.697637 23.909533 -108.969734 8.923151 -11.069360 -17.560550 -6.298988 -87.277837 -9.651167 3.022756 -22.289855 0.000000 0.000000 0.000000 0.000000 0.000000 0.000000 -3.545565 3.164529 -22.660614 3.831560 -2.456479 0.453645 -21.997657 13.612662 32.085417 0.000000 0.000000 0.000000 -5.944625 0.679862 -23.123905 5.484918 2.179932 0.969769 6.537186 -1.566785 -3.106308 0.000000 0.000000 0.000000
-21.175678 69.976067 357.837856 0.631750 0.933030 22.501261 -0.005693 0.116501 -22.495615 0.047637 0.037563 0.025517 -6.476363 -2.706371 -1.458479 0.000000 0.000000 0.000000 -2.122635 13.754349 -0.827018 -17.532779 39.277964 11.016498 -25.765061 27.627550 17.033138 49.287917 -22.633102 -4.533769 0.000000 0.000000 0.000000 0.000000 0.000000 0.000000 -47.038170 31.063770 22.240115 -108.938699 9.692091 -4.340245 -12.862779 -4.868537 -83.544203 -4.213168 -4.480041 -41.795768 0.000000 0.000000 0.000000 0.000000 0.000000 0.000000 -3.616112 3.118160 -22.847423 3.920049 -2.401806 0.476491 -27.328952 19.253354 42.013450 0.000000 0.000000 0.000000 -5.992590 0.646574 -23.306729 5.538680 2.157083 0.974894 9.329497 -0.560845 -5.456357 0.000000 0.000000 0.000000
-21.115478 69.960222 357.795001 0.640862 1.003833 22.715226 -0.014145 0.067308 -22.709221 0.051621 0.062469 0.026252 -6.649326 -2.781910 -1.499675 0.000000 0.000000 0.000000 -2.126198 13.646047 -0.828057 -18.375536 39.221471 11.427435 -18.627181 25.759843 14.960446 45.349445 -20.976346 -6.173693 0.000000 0.000000 0.000000 0.000000 0.000000 0.000000 -45.079039 30.563326 21.111863 -108.305190 10.400829 0.264963 -9.352997 -6.017170 -82.296601 -0.762247 -8.830053 -46.544806 0.000000 0.000000 0.000000 0.000000 0.000000 0.000000 -3.737050 3.047235 -23.086136 4.001219 -2.341241 0.498349 -29.608154 21.533035 46.157772 0.000000 0.000000 0.000000 -6.101453 0.576582 -23.547580 5.613692 2.142029 0.985602 8.440175 -0.263510 -5.260563 0.000000 0.000000 0.000000
-21.060920 69.964874 357.734336 0.668447 1.108416 22.917260 -0.006810 0.009798 -22.910120 0.079848 0.108846 0.030246 -7.009212 -3.306657 -1.710748 0.000000 0.000000 0.000000 -2.175472 13.123343 -0.820122 -20.430120 39.708604 12.582738 3.856950 23.354527 10.929921 25.327404 -18.210373 -13.577097 0.000000 0.000000 0.000000 0.000000 0.000000 0.000000 -44.817744 30.485331 20.908108 -107.174484 11.184935 2.614479 -8.193933 -7.144526 -82.696661 0.319956 -11.141973 -48.322175 0.000000 0.000000 0.000000 0.000000 0.000000 0.000000 -3.891671 2.936707 -23.316747 4.078289 -2.264951 0.520774 -30.718161 20.613521 47.063154 0.000000 0.000000 0.000000 -6.238635 0.471230 -23.781424 5.660545 2.141564 0.994376 6.901850 0.440839 -5.151126 0.000000 0.000000 0.000000
-21.007281 69.950198 357.672725 0.695190 1.194891 23.024659 0.008199 -0.056942 -23.015589 0.110084 0.143336 0.035141 -7.296580 -3.938794 -1.957071 0.000000 0.000000 0.000000 -2.219501 12.712103 -0.816109 -20.846412 39.952308 12.839812 5.650132 24.311995 10.915521 24.377301 -19.015300 -13.450237 0.000000 0.000000 0.000000 0.000000 0.000000 0.000000 -45.992059 30.812505 21.530713 -105.677038 11.874317 3.020059 -10.389671 -9.553507 -87.221617 -3.913956 -8.978813 -42.273632 0.000000 0.000000 0.000000 0.000000 0.000000 0.000000 -4.048072 2.825364 -23.453737 4.154484 -2.176237 0.544076 -28.438038 18.674766 43.067301 0.000000 0.000000 0.000000 -6.324808 0.390209 -23.907001 5.671770 2.110489 0.993719 4.435565 0.462727 -3.894560 0.000000 0.000000 0.000000
-20.961417 69.924180 357.612441 0.720296 1.240026 23.018693 -0.008809 -0.135744 -23.007943 0.129960 0.148299 0.038716 -7.579973 -4.445626 -2.186951 0.000000 0.000000 0.000000 -2.136424 12.241458 -0.801079 -21.444242 40.778604 13.260648 9.079478 21.085040 9.994183 21.226122 -15.985040 -15.250275 0.000000 0.000000 0.000000 0.000000 0.000000 0.000000 -48.662908 31.456461 23.019400 -103.744560 12.420676 1.832332 -17.161277 -12.965324 -97.824957 -13.411136 -5.935095 -32.229756 0.000000 0.000000 0.000000 0.000000 0.000000 0.000000 -4.181324 2.766014 -23.471190 4.228986 -2.112784 0.564610 -22.470842 14.182691 33.012189 0.000000 0.000000 0.000000 -6.353797 0.350311 -23.904265 5.678204 2.066913 0.990481 1.277152 -0.070420 -1.880941 0.000000 0.000000 0.000000
-20.949870 69.900073 357.569563 0.711228 1.237787 22.924699 -0.035990 -0.201863 -22.913214 0.142682 0.131496 0.040024 -7.855024 -4.806015 -2.385336 0.000000 0.000000 0.000000 -2.046712 11.869800 -0.779921 -20.530043 41.697761 12.913312 2.585152 18.918036 10.081815 25.983851 -14.575402 -14.573818 0.000000 0.000000 0.000000 0.000000 0.000000 0.000000 -52.476498 32.264261 25.239475 -101.815419 12.456225 -1.761544 -27.705557 -15.233511 -112.822630 -20.867879 0.433511 -9.273616 0.000000 0.000000 0.000000 0.000000 0.000000 0.000000 -4.196458 2.764468 -23.380741 4.250019 -2.110835 0.568928 -16.836172 10.054553 23.792229 0.000000 0.000000 0.000000 -6.218973 0.350263 -23.782562 5.610169 1.965346 0.969890 -2.225287 -1.406230 0.861840 0.000000 0.000000 0.000000
-20.929503 69.873012 357.525676 0.688813 1.211719 22.955856 -0.056607 -0.272078 -22.943328 0.144421 0.100260 0.040492 -7.992682 -4.862818 -2.462548 0.000000 0.000000 0.000000 -2.025409 11.491587 -0.753068 -18.713339 43.190314 12.205288 -10.006711 10.930558 8.412743 39.807661 -7.945547 -13.245304 0.000000 0.000000 0.000000 0.000000 0.000000 0.000000 -56.352286 32.954552 27.568472 -99.947250 12.267511 -6.002531 -42.723383 -15.883543 -135.425417 -36.627062 2.258931 35.536871 0.000000 0.000000 0.000000 0.000000 0.000000 0.000000 -4.174924 2.837691 -23.408252 4.282047 -2.157738 0.570942 -11.638164 4.635447 14.397677 0.000000 0.000000 0.000000 -6.145741 0.317179 -23.813139 5.605137 1.980294 0.975113 -6.157659 -3.196293 3.925334 0.000000 0.000000 0.000000
-20.925584 69.834423 357.502650 0.642631 1.145304 23.068694 -0.064612 -0.325829 -23.055273 0.130176 0.058126 0.039039 -7.955134 -4.494373 -2.367149 0.000000 0.000000 0.000000 -2.132229 11.189720 -0.723125 -17.385519 44.367141 11.785296 -13.946505 3.452346 5.754751 43.404127 -1.522254 -15.542569 0.000000 0.000000 0.000000 0.000000 0.000000 0.000000 -58.428822 33.206309 28.821244 -101.471291 11.269610 -11.699972 -46.680336 -16.403306 -143.063925 -39.275270 -2.072395 36.936592 0.000000 0.000000 0.000000 0.000000 0.000000 0.000000 -4.115745 2.955398 -23.514868 4.322225 -2.212944 0.573836 -6.322958 -3.959656 2.615960 0.000000 0.000000 0.000000 -5.976380 0.300740 -23.913534 5.526134 1.996492 0.971425 -5.877617 -3.393091 3.983723 0.000000 0.000000 0.000000
-20.929451 69.779061 357.502756 0.585968 1.059057 23.396009 -0.064433 -0.349411 -23.382321 0.108279 0.033358 0.035957 -7.756109 -3.823993 -2.131750 0.000000 0.000000 0.000000 -2.308003 11.579008 -0.722747 -16.418556 43.984875 11.335288 -15.012730 1.303688 4.922026 44.914271 1.070305 -16.557150 0.000000 0.000000 0.000000 0.000000 0.000000 0.000000 -56.890074 33.633347 28.572226 -104.895167 10.509036 -16.107406 -43.908838 -17.774619 -137.683340 -34.478994 -1.242713 17.115005 0.000000 0.000000 0.000000 0.000000 0.000000 0.000000 -4.015645 3.141080 -23.829521 4.367540 -2.308848 0.574095 -5.543995 -4.049377 1.834960 0.000000 0.000000 0.000000 -5.798450 0.262233 -24.239223 5.392043 2.086683 0.971472 -4.354232 -2.927590 3.012730 0.000000 0.000000 0.000000
-20.941900 69.723121 357.501375 0.518839 0.991129 23.783658 -0.042714 -0.332065 -23.770601 0.083979 0.037885 0.031604 -7.448347 -3.097429 -1.838831 0.000000 0.000000 0.000000 -2.537719 12.383376 -0.741383 -16.907328 42.913551 11.617283 -11.777780 -2.161179 4.218117 46.378505 3.994889 -17.837423 0.000000 0.000000 0.000000 0.000000 0.000000 0.000000 -52.157592 34.077888 26.862163 -106.420492 10.558890 -14.258621 -40.416528 -16.017410 -126.310136 -28.312519 5.441500 9.328687 0.000000 0.000000 0.000000 0.000000 0.000000 0.000000 -3.889401 3.302514 -24.202902 4.393298 -2.406791 0.570349 -6.732815 -2.171322 4.420987 0.000000 0.000000 0.000000 -5.619338 0.213214 -24.626044 5.265275 2.148809 0.969197 -1.681497 -2.369887 1.499265 0.000000 0.000000 0.000000
-20.950451 69.690083 357.483596 0.483242 0.977554 24.275647 -0.022884 -0.309826 -24.263191 0.080604 0.074995 0.029511 -7.293937 -2.340815 -1.537479 0.000000 0.000000 0.000000 -2.796892 12.478791 -0.739755 -16.347655 41.881099 11.337846 -12.900190 0.440657 4.954862 47.618960 1.947250 -16.517689 0.000000 0.000000 0.000000 0.000000 0.000000 0.000000 -46.407368 34.607047 24.811045 -108.093697 10.668750 -12.659216 -32.940063 -12.300317 -106.432799 -15.873730 14.286331 2.582292 0.000000 0.000000 0.000000 0.000000 0.000000 0.000000 -3.801916 3.426378 -24.683617 4.412845 -2.500597 0.565779 -9.946428 2.064283 10.781565 0.000000 0.000000 0.000000 -5.553282 0.088289 -25.142919 5.196358 2.309281 0.989393 -0.019993 -2.197165 0.640341 0.000000 0.000000 0.000000
-20.961161 69.697460 357.449896 0.481728 1.025440 24.708548 0.033128 -0.303329 -24.694713 0.102496 0.152041 0.031883 -7.396380 -1.874585 -1.347879 0.000000 0.000000 0.000000 -3.091697 12.241458 -0.743361 -16.263598 40.828484 11.284980 -11.618136 3.635188 6.101729 46.248524 0.254525 -15.701638 0.000000 0.000000 0.000000 0.000000 0.000000 0.000000 -42.506918 34.966954 23.416488 -109.096289 10.774165 -12.078799 -20.328047 -4.593224 -79.922221 1.197104 9.501031 -15.544284 0.000000 0.000000 0.000000 0.000000 0.000000 0.000000 -3.760288 3.434001 -25.111011 4.391457 -2.536616 0.558244 -11.117809 2.804932 12.516604 0.000000 0.000000 0.000000 -5.582020 -0.086361 -25.613438 5.145289 2.492577 1.014627 0.676580 -2.519207 0.634035 0.000000 0.000000 0.000000
-20.954735 69.748195 357.409407 0.515786 1.111454 24.983843 0.081990 -0.279684 -24.968864 0.133416 0.236296 0.035552 -7.230224 -2.185877 -1.372730 0.000000 0.000000 0.000000 -3.404403 11.933765 -0.753548 -16.552343 39.538955 11.381416 -3.185851 11.501480 8.260515 35.890792 -5.432025 -14.760980 0.000000 0.000000 0.000000 0.000000 0.000000 0.000000 -40.444440 35.340861 22.791009 -109.356377 11.035847 -12.137649 -11.652714 3.411364 -62.142606 7.356870 -0.801459 -24.929272 0.000000 0.000000 0.000000 0.000000 0.000000 0.000000 -3.807443 3.386132 -25.390570 4.387453 -2.535808 0.557515 -12.062228 2.932646 13.579161 0.000000 0.000000 0.000000 -5.718666 -0.240118 -25.931472 5.115742 2.624788 1.032957 -1.025451 -3.114932 1.905086 0.000000 0.000000 0.000000
